<?xml version="1.0" encoding="UTF-8" standalone="no"?>
<!-- Generator: Adobe Illustrator 26.3.1, SVG Export Plug-In . SVG Version: 6.00 Build 0)  -->

<svg
   version="1.1"
   id="Ebene_1"
   x="0px"
   y="0px"
   viewBox="0 0 139.69251 139.69249"
   xml:space="preserve"
   width="139.6925"
   height="139.69249"
   xmlns="http://www.w3.org/2000/svg"
   xmlns:svg="http://www.w3.org/2000/svg"><defs
   id="defs149" />
<style
   type="text/css"
   id="style2">
	.st0{fill:#FFFFFF;}
	.st1{fill:#084780;}
</style>
<g
   id="g3"
   transform="translate(-90.980886,-227.11309)"><path
     class="st0"
     d="m 230.67339,296.95932 c 0,38.62087 -31.32808,69.84626 -69.84625,69.84626 -38.62085,0 -69.846235,-31.32809 -69.846235,-69.84626 0,-38.62085 31.328085,-69.84623 69.846235,-69.84623 38.62087,0 69.84625,31.32809 69.84625,69.84623 z"
     id="path4"
     style="stroke-width:1.02716" /><path
     class="st1"
     d="m 111.4153,336.25118 c 0.55027,-0.44021 0.66032,-1.32063 0.22011,-1.87089 -0.44021,-0.55027 -1.32064,-0.66032 -1.8709,-0.22011 -0.55026,0.44021 -0.66032,1.21058 -0.2201,1.8709 0.44021,0.55026 1.32063,0.66031 1.87089,0.2201 z"
     id="path66"
     style="stroke-width:1.10053" /><polygon
     class="st1"
     points="226.6,147.3 225.9,148.2 222.5,145.4 230.4,143.3 230.6,143.1 226.1,139.3 226.3,139 225.9,138.6 224.7,140.1 225.1,140.4 225.7,139.8 228.9,142.4 221,144.5 220.7,144.8 225.9,149.1 227,147.7 "
     id="polygon68"
     transform="matrix(1.1005271,0,0,1.1005271,-129.38003,185.80913)" /><path
     class="st1"
     d="m 136.06711,350.33793 -3.19153,-1.76084 -0.33016,0.66031 1.21058,0.66032 -2.20105,3.9619 c -0.77037,1.32063 -2.091,1.76084 -3.30158,1.10052 -1.21058,-0.66031 -1.43069,-1.98095 -0.77037,-3.30158 l 2.20105,-3.9619 1.21058,0.66032 0.33016,-0.66032 -3.63174,-1.98094 -0.33016,0.66031 1.21058,0.66032 -2.42116,4.29205 c -0.88042,1.54074 -0.2201,3.30158 1.54074,4.29206 1.8709,0.99047 3.74179,0.55026 4.73227,-1.21058 l 2.20105,-4.07195 1.21058,0.66032 z"
     id="path70"
     style="stroke-width:1.10053" /><path
     class="st1"
     d="m 144.76127,353.96967 1.21058,0.33016 c 0.88042,0.2201 1.21058,0.88042 0.99048,1.76084 -0.22011,0.88042 -0.99048,1.32063 -1.8709,1.10053 l -1.10053,-0.33016 z m -0.88042,3.63174 1.32063,0.33016 c 1.21058,0.33015 1.65079,0.99047 1.32064,2.091 -0.22011,0.99047 -0.99048,1.32063 -2.20106,1.10052 l -1.21058,-0.33015 z m 0.99048,4.29205 c 1.65079,0.44021 2.86137,-0.11005 3.19152,-1.43068 0.33016,-1.32063 -0.44021,-2.42116 -2.091,-2.86137 1.32064,0.33016 2.42116,-0.22011 2.64127,-1.32063 0.33016,-1.21058 -0.44021,-2.31111 -1.98095,-2.64127 l -4.29206,-1.10053 -0.11005,0.66032 1.32063,0.33016 -1.76084,6.93332 -1.32063,-0.33016 -0.22011,0.66032 z"
     id="path72"
     style="stroke-width:1.10053" /><polygon
     class="st1"
     points="263.1,153.5 263,153.9 257.8,153.7 257.8,154.3 259.1,154.4 258.8,160.8 257.6,160.8 257.6,161.4 263.5,161.6 263.6,160 262.9,160 262.9,160.9 260.1,160.8 260.2,157.9 262.3,158 262.3,158.8 262.9,158.8 263,156.5 262.4,156.5 262.3,157.3 260.2,157.2 260.3,154.5 263,154.5 263,155.4 263.6,155.4 263.7,153.6 "
     id="polygon74"
     transform="matrix(1.1005271,0,0,1.1005271,-129.38003,185.80913)" /><path
     class="st1"
     d="m 168.75276,355.18025 1.21058,-0.22011 c 0.99048,-0.11005 1.54074,0.33016 1.65079,1.32064 0.11006,0.99047 -0.33015,1.76084 -1.21058,1.87089 l -1.32063,0.22011 z m 6.60317,6.0529 -0.55027,0.11005 c -0.44021,0.11005 -0.77037,-0.11005 -1.10052,-0.55026 l -2.09101,-2.20106 c 1.21058,-0.44021 1.76085,-1.43068 1.54074,-2.64126 -0.2201,-1.43069 -1.32063,-2.091 -3.08147,-1.76085 l -4.29206,0.66032 0.11005,0.77037 1.32064,-0.22011 1.10052,6.93332 -1.32063,0.22011 0.11005,0.66032 4.07195,-0.66032 -0.11005,-0.66032 -1.32063,0.22011 -0.44021,-2.97142 0.88042,-0.11006 2.42116,2.64127 c 0.55026,0.66031 0.77037,0.66031 1.54074,0.55026 l 1.32063,-0.2201 z"
     id="path76"
     style="stroke-width:1.10053" /><polygon
     class="st1"
     points="284.2,156.8 282,150.9 283.1,150.5 282.9,149.9 279.4,151.2 279.6,151.8 280.8,151.4 283.1,157.3 281.9,157.8 282.1,158.4 287.6,156.3 287,154.7 286.5,154.9 286.8,155.9 "
     id="polygon78"
     transform="matrix(1.1005271,0,0,1.1005271,-129.38003,185.80913)" /><polygon
     class="st1"
     points="287.9,147.5 288.2,148.1 289.3,147.4 292.6,152.9 291.5,153.5 291.8,154.1 295,152.1 294.7,151.6 293.7,152.3 290.4,146.8 291.4,146.1 291.1,145.6 "
     id="polygon80"
     transform="matrix(1.1005271,0,0,1.1005271,-129.38003,185.80913)" /><polygon
     class="st1"
     points="301.5,146.7 298.2,143.1 305.6,143.9 305.9,143.6 301.1,138.4 302,137.5 301.5,137 299.1,139.3 299.5,139.8 300.5,138.9 303.7,142.4 296.6,141.6 295,143.1 295.5,143.6 296.3,142.8 296.9,142.9 300.9,147.2 300,148.1 300.4,148.5 302.9,146.3 302.5,145.8 "
     id="polygon82"
     transform="matrix(1.1005271,0,0,1.1005271,-129.38003,185.80913)" /><path
     class="st1"
     d="m 211.013,332.17923 c -0.55026,-0.44021 -1.43068,-0.2201 -1.76084,0.33016 -0.44021,0.55026 -0.2201,1.43069 0.33016,1.76084 0.55026,0.44021 1.43068,0.33016 1.76084,-0.33015 0.33016,-0.44022 0.22011,-1.32064 -0.33016,-1.76085 z"
     id="path84"
     style="stroke-width:1.10053" /><polygon
     class="st1"
     points="215.9,127.4 216.5,127.1 215,123.7 214.4,124 214.9,125.1 212.2,126.3 210.4,122.1 213.1,121 213.6,122.1 214.1,121.8 212.6,118.4 212,118.6 212.5,119.8 206.6,122.4 206.1,121.3 205.6,121.5 207.1,124.9 207.7,124.7 207.2,123.6 209.8,122.4 211.6,126.6 209,127.7 208.5,126.6 207.9,126.8 209.5,130.3 210,130 209.5,128.9 215.4,126.2 "
     id="polygon86"
     transform="matrix(1.1005271,0,0,1.1005271,-129.38003,185.80913)" /><path
     class="st1"
     d="m 93.47671,302.79516 0.550263,3.63174 0.770369,-0.11005 -0.220105,-1.32064 4.512161,-0.66031 c 1.430682,-0.22011 2.641262,0.55026 2.861372,1.98095 0.2201,1.32063 -0.66032,2.3111 -2.091003,2.64126 l -4.512161,0.77037 -0.220105,-1.32063 -0.770369,0.11005 0.660316,4.07195 0.770369,-0.11005 -0.220106,-1.32064 4.952369,-0.77036 c 1.65079,-0.22011 2.75132,-1.8709 2.42116,-3.85185 -0.33016,-2.091 -1.87089,-3.30158 -3.851842,-2.97142 l -4.512161,0.77037 -0.220105,-1.32064 z"
     id="path88"
     style="stroke-width:1.10053" /><polygon
     class="st1"
     points="204.3,97.8 210.6,95.7 204.7,92 210.2,92.7 210.1,93.9 210.7,94 211.1,90.2 210.5,90.2 210.4,91.4 204,90.6 204.2,89.4 203.5,89.3 203.2,91.9 208.4,95.2 202.5,97.1 202.2,99.6 202.9,99.7 203.1,98.5 209.4,99.2 209.3,100.5 209.9,100.5 210.3,97.2 209.7,97.2 209.5,98.4 "
     id="polygon90"
     transform="matrix(1.1005271,0,0,1.1005271,-129.38003,185.80913)" /><path
     class="st1"
     d="m 98.319029,274.51161 0.440211,-1.21058 c 0.330158,-0.88042 0.990474,-1.10053 1.8709,-0.77037 0.88042,0.33016 1.21058,1.10053 0.88042,1.98095 l -0.44021,1.10053 z m 3.411631,1.32063 0.44021,-1.21058 c 0.44021,-1.10052 1.21058,-1.43068 2.20106,-1.10052 0.99047,0.33016 1.21058,1.10052 0.77037,2.3111 l -0.44021,1.21058 z m 4.40211,-0.44021 c 0.66032,-1.65079 0.22011,-2.86137 -1.10053,-3.30158 -1.32063,-0.44021 -2.42116,0.11005 -3.08147,1.76085 0.44021,-1.21058 0.11005,-2.42116 -0.88042,-2.86137 -1.210583,-0.44022 -2.31111,0.2201 -2.861374,1.65079 l -1.65079,4.182 0.660316,0.2201 0.440211,-1.32063 6.603167,2.53121 -0.44022,1.32064 0.66032,0.2201 z"
     id="path92"
     style="stroke-width:1.10053" /><path
     class="st1"
     d="m 105.3624,260.42486 c 0.88042,-1.21057 2.97143,-1.32063 4.62222,-0.2201 1.65079,1.21058 2.3111,3.08148 1.43068,4.40211 -0.88042,1.21058 -2.97142,1.32063 -4.62221,0.11005 -1.65079,-1.10053 -2.31111,-3.08148 -1.43069,-4.29206 z m 6.71322,4.62222 c 1.32063,-1.8709 0.77037,-4.73227 -1.21058,-6.0529 -1.98095,-1.32063 -4.73227,-0.88042 -6.0529,0.99047 -1.32063,1.8709 -0.77037,4.73227 1.10053,6.0529 1.98094,1.43069 4.84232,0.88042 6.16295,-0.99047 z"
     id="path94"
     style="stroke-width:1.10053" /><polygon
     class="st1"
     points="225.9,62.9 221.5,58.4 222.4,57.5 222,57 219.3,59.6 219.7,60.1 220.6,59.2 225.1,63.8 224.2,64.7 224.6,65.1 228.8,61 227.7,59.8 227.2,60.3 227.9,61 "
     id="polygon96"
     transform="matrix(1.1005271,0,0,1.1005271,-129.38003,185.80913)" /><path
     class="st1"
     d="m 127.483,248.42912 -3.74179,-5.94285 1.21058,-0.77037 c 1.43068,-0.88042 3.30158,-0.33015 4.4021,1.43069 1.10053,1.65079 0.77037,3.63174 -0.66031,4.51216 z m -1.98095,2.091 3.63174,-2.31111 c 2.091,-1.32063 2.75132,-3.85184 1.54074,-5.94284 -1.21058,-1.98095 -3.85185,-2.53121 -5.94285,-1.21058 l -3.63174,2.3111 0.33016,0.55027 1.21058,-0.77037 3.74179,6.0529 -1.21058,0.77037 z"
     id="path98"
     style="stroke-width:1.10053" /><polygon
     class="st1"
     points="243,52 243.2,52.5 247.1,51.2 246.9,50.6 245.5,51.1 243.4,45 245.7,44.2 246,45.1 246.6,44.9 246,43.1 245.4,43.3 245.5,43.6 239.7,45.6 239.6,45.3 239.1,45.5 239.7,47.3 240.3,47.1 240,46.2 242.2,45.4 244.3,51.5 "
     id="polygon100"
     transform="matrix(1.1005271,0,0,1.1005271,-129.38003,185.80913)" /><polygon
     class="st1"
     points="251.4,45.5 251.6,46.7 254.8,46.2 254.5,44.9 "
     id="polygon102"
     transform="matrix(1.1005271,0,0,1.1005271,-129.38003,185.80913)" /><path
     class="st1"
     d="m 165.23108,231.2609 -3.63174,-0.11006 v 0.77037 h 1.32063 l -0.11005,4.62222 c 0,1.43068 -0.99048,2.53121 -2.42116,2.53121 -1.32063,0 -2.20106,-1.10053 -2.20106,-2.53121 l 0.11006,-4.62222 h 1.43068 v -0.77037 l -4.182,-0.11005 v 0.77037 h 1.43068 l -0.11005,4.95237 c 0,1.76085 1.32063,2.97143 3.30158,3.08148 2.091,0 3.52169,-1.32063 3.52169,-3.30158 l 0.11005,-4.62222 h 1.32063 z"
     id="path104"
     style="stroke-width:1.10053" /><polygon
     class="st1"
     points="274.5,49.5 275.8,44.7 279,51.4 279.5,51.6 281.3,44.7 282.5,45 282.7,44.3 279.5,43.5 279.3,44.1 280.5,44.4 279.3,49 276.2,42.6 274.1,42 273.9,42.7 275.1,43 275.3,43.5 273.7,49.2 272.5,48.9 272.4,49.5 275.6,50.4 275.7,49.8 "
     id="polygon106"
     transform="matrix(1.1005271,0,0,1.1005271,-129.38003,185.80913)" /><polygon
     class="st1"
     points="288.7,47 288.4,47.5 289.5,48.1 286.5,53.8 285.4,53.2 285.1,53.7 288.4,55.5 288.7,55 287.6,54.4 290.6,48.7 291.7,49.3 292,48.7 "
     id="polygon108"
     transform="matrix(1.1005271,0,0,1.1005271,-129.38003,185.80913)" /><polygon
     class="st1"
     points="302,55.5 300.1,54.1 299.7,54.6 300.5,55.2 295.7,58 297.1,52.6 297.9,53.2 298.3,52.7 295.8,50.8 295.4,51.3 296,51.8 294.1,59.3 294.4,59.6 301.1,55.6 301.6,56 "
     id="polygon110"
     transform="matrix(1.1005271,0,0,1.1005271,-129.38003,185.80913)" /><polygon
     class="st1"
     points="309.7,62.9 309.4,63.1 305.9,59.2 305.5,59.7 306.3,60.6 301.5,64.9 300.7,64 300.2,64.4 304.2,68.8 305.4,67.8 304.9,67.3 304.3,67.9 302.4,65.8 304.6,63.8 306,65.4 305.4,66 305.8,66.4 307.5,64.9 307.1,64.5 306.5,65 305,63.4 307.1,61.5 308.9,63.6 308.3,64.2 308.7,64.6 310.1,63.4 "
     id="polygon112"
     transform="matrix(1.1005271,0,0,1.1005271,-129.38003,185.80913)" /><path
     class="st1"
     d="m 214.7548,277.81319 c -0.11006,0.77037 -0.11006,1.54074 0.11005,2.20106 0.44021,1.43068 1.76084,2.20105 3.08147,1.76084 1.10053,-0.33016 1.54074,-0.99047 1.8709,-2.75132 0.11005,-0.44021 0.22011,-0.88042 0.33016,-1.43068 0.11005,-0.66032 0.33016,-0.99048 0.77037,-1.10053 0.66031,-0.2201 1.32063,0.11005 1.65079,0.99048 0.11005,0.44021 0.2201,0.77036 0,1.65079 l -0.88042,0.2201 0.2201,0.66032 2.091,-0.66032 -0.2201,-0.66032 -0.44021,0.11006 c 0.11005,-0.55027 0.11005,-1.10053 -0.11005,-1.76085 -0.44022,-1.43068 -1.76085,-2.20105 -3.08148,-1.76084 -0.99048,0.33016 -1.43069,1.10053 -1.76084,2.86137 -0.22011,1.65079 -0.55027,2.31111 -1.21058,2.53121 -0.66032,0.22011 -1.32064,-0.2201 -1.65079,-1.10052 -0.22011,-0.55027 -0.22011,-1.10053 0,-1.98095 l 0.88042,-0.33016 -0.22011,-0.66032 -2.20105,0.66032 0.2201,0.66032 z"
     id="path114"
     style="stroke-width:1.10053" /><polygon
     class="st1"
     points="322.2,91.3 321.6,91.4 321.7,92.6 315.4,93.5 315.2,92.3 314.6,92.3 315.2,96.1 315.8,96 315.6,94.7 321.9,93.9 322.1,95.1 322.8,95 "
     id="polygon116"
     transform="matrix(1.1005271,0,0,1.1005271,-129.38003,185.80913)" /><polygon
     class="st1"
     points="316,101.6 315.4,101.6 315.3,105.6 315.9,105.7 316,104.2 322.3,104.5 322.3,106.9 321.3,106.9 321.3,107.5 323.2,107.5 323.3,106.9 322.9,106.9 323.1,100.8 323.5,100.8 323.5,100.2 321.6,100.2 321.5,100.8 322.5,100.8 322.4,103.2 316,103 "
     id="polygon118"
     transform="matrix(1.1005271,0,0,1.1005271,-129.38003,185.80913)" /><path
     class="st1"
     d="m 219.70717,310.49885 2.75132,2.091 -3.41164,0.55026 z m 6.93332,2.86137 c 0.55026,0.11005 1.10053,-0.22011 1.21058,-0.66032 0.11005,-0.55026 -0.22011,-1.10052 -0.77037,-1.21058 -0.55026,-0.11005 -0.99047,0.22011 -1.21058,0.77037 -0.11005,0.44021 0.22011,0.99048 0.77037,1.10053 z m -0.88042,3.19153 c 0.55026,0.11005 1.10052,-0.22011 1.21058,-0.66032 0.11005,-0.55026 -0.22011,-1.10053 -0.77037,-1.21058 -0.55027,-0.11005 -0.99048,0.22011 -1.21058,0.77037 0,0.44021 0.33016,0.88042 0.77037,1.10053 z m -10.12485,-0.77037 0.2201,-0.77037 8.58411,-1.32063 0.11006,-0.44021 -6.93332,-5.39259 0.2201,-0.66031 -0.66031,-0.11006 -0.66032,2.53122 0.66032,0.11005 0.2201,-0.99048 1.76084,1.32064 -0.77036,3.19153 -2.09101,0.33015 0.22011,-0.77037 -0.66032,-0.11005 -0.77037,2.97143 z"
     id="path120"
     style="stroke-width:1.10053" /><polygon
     class="st1"
     points="311.8,122.4 311.2,122.2 309.5,125.9 310,126.1 310.6,124.8 316.4,127.5 315.4,129.7 314.6,129.4 314.3,129.9 316,130.7 316.3,130.2 316,130 318.6,124.5 318.9,124.6 319.1,124.1 317.4,123.3 317.1,123.8 318,124.2 317,126.4 311.2,123.7 "
     id="polygon122"
     transform="matrix(1.1005271,0,0,1.1005271,-129.38003,185.80913)" /><path
     class="st1"
     d="m 216.62569,264.60687 0.66032,1.10053 c 0.44021,0.88042 0.2201,1.54073 -0.66032,2.091 -0.88042,0.44021 -1.76084,0.33015 -2.20105,-0.44021 l -0.66032,-1.10053 z m -3.41163,8.25395 -0.22011,-0.44021 c -0.2201,-0.33016 -0.2201,-0.77037 0.11006,-1.21058 l 1.32063,-2.75132 c 0.77037,0.99048 1.98095,1.21058 2.97142,0.55027 1.32063,-0.77037 1.54074,-1.98095 0.66032,-3.52169 l -2.091,-3.74179 -0.66032,0.33016 0.66032,1.21058 -6.16296,3.41163 -0.66031,-1.21058 -0.55027,0.33016 1.98095,3.63174 0.55027,-0.33016 -0.66032,-1.21058 2.64127,-1.43069 0.44021,0.77037 -1.65079,3.19153 c -0.33016,0.77037 -0.33016,0.88042 0,1.65079 l 0.66031,1.21058 z"
     id="path124"
     style="stroke-width:1.10053" /><path
     class="st1"
     d="m 174.36545,270.32961 c -0.11005,0 -1.65079,-0.77037 -1.98095,-0.77037 -0.11005,0 -0.88042,-0.55026 -1.54073,-0.99047 -0.66032,-0.44022 -0.99048,-0.66032 -1.10053,-0.77037 -0.11005,0 -0.88042,-0.44021 -1.21058,-0.55027 l -1.8709,-1.21058 -1.87089,-1.32063 c 0,0 -0.33016,-0.33016 -0.77037,-0.33016 0,0 -1.10053,-0.44021 -2.53122,-0.2201 -0.88042,0.11005 -3.08147,0.44021 -3.08147,0.44021 -0.11005,0 -2.20106,0.44021 -2.31111,0.55026 0,0 -1.76084,1.10053 -2.3111,1.43069 v 0 l -0.22011,1.21058 0.11005,-0.11006 c 0,0 1.54074,-1.43068 2.86137,-1.87089 0,0 2.97143,-0.66032 5.06243,-0.66032 0,0 2.091,0 3.63174,1.21058 l 1.32063,1.10053 1.98095,1.10053 c 0,0 1.54074,1.21058 4.84232,2.53121 0,0 1.76084,0.66031 2.75132,1.65079 l 0.11005,0.11005 v -0.11005 c 0.55026,-1.10053 -1.76085,-2.31111 -1.8709,-2.42116 z"
     id="path126"
     style="stroke-width:1.10053" /><path
     class="st1"
     d="m 182.72946,280.01425 -0.33016,-1.98095 -0.22011,-1.21058 -0.44021,-1.32063 c -0.44021,-1.65079 -1.21058,-2.86137 -2.091,-3.9619 0,0 -0.33016,-0.77037 -1.54074,-1.8709 -0.11005,-0.11005 -0.2201,-0.2201 -0.33015,-0.33016 -0.44022,-0.44021 -1.10053,-1.10052 -1.98095,-1.54073 -0.22011,-0.11006 -2.091,-1.32064 -2.20106,-1.32064 0,0 -0.11005,-0.11005 -0.33016,-0.11005 -0.44021,-0.11005 -0.99047,-0.33016 -1.10052,-0.44021 -0.44021,-0.11005 -0.88042,-0.2201 -1.21058,-0.2201 l 0.2201,-0.11006 h -0.55026 v 0 c 0,0 -0.11005,0.11006 -0.11005,0.11006 0,0.11005 0.11005,0.2201 0.99047,0.44021 0.22011,0.11005 1.98095,0.66031 1.98095,0.77036 0,0 2.20105,1.32064 2.53121,1.54074 0,0 1.76085,1.32064 2.86137,2.97143 0,0 1.43069,1.87089 2.31111,5.17247 l 0.99047,2.86137 1.10053,1.98095 z"
     id="path128"
     style="stroke-width:1.10053" /><path
     class="st1"
     d="m 185.92099,288.37825 c -0.11006,-0.77037 -0.22011,-1.76084 -0.33016,-2.3111 -0.11005,-0.88043 -0.66032,-2.31111 -1.10053,-3.08148 -0.44021,-0.66032 -1.32063,-1.32063 -1.43068,-1.43068 l -0.22011,-0.11006 0.77037,1.76085 c 0,0 0.88042,1.87089 1.43068,6.273 l -0.33015,3.9619 -0.44021,1.43068 c -0.11006,1.32064 -0.11006,1.32064 -0.11006,1.32064 v 0 0 c 0,0 0.88042,-0.88043 1.10053,-1.8709 0,-0.11005 0.33016,-1.65079 0.33016,-1.98095 0,0 0.33016,-2.31111 0.2201,-3.08148 0.22011,-0.11005 0.11006,-0.44021 0.11006,-0.88042 z"
     id="path130"
     style="stroke-width:1.10053" /><path
     class="st1"
     d="m 191.64373,314.90096 c -0.33016,-0.22011 -0.66032,-0.55027 -1.10053,-1.10053 -0.99047,-0.99048 -1.98095,-1.76084 -3.08148,-2.31111 -0.11005,-0.11005 -0.2201,-0.11005 -0.33015,-0.2201 -1.10053,-0.55027 -2.09101,-1.10053 -2.42116,-1.8709 -0.11006,-0.44021 0,-0.66032 0.11005,-0.99047 0.2201,-0.44021 0.44021,-0.88043 0.2201,-1.65079 -0.2201,-0.88043 -0.44021,-1.65079 -0.55026,-2.09101 0.44021,-0.2201 0.66032,-0.44021 0.77037,-0.44021 0.11005,-0.11005 0.33016,-0.2201 0.44021,-0.44021 0.11005,0.22011 0.33016,0.55027 0.33016,0.66032 v 0 c 0,0 0.88042,0.77037 0.99047,1.32063 -0.11005,0.22011 -0.88042,2.31111 -0.88042,2.31111 -0.2201,0.77037 -0.2201,1.32063 0.11005,1.65079 0.22011,0.2201 0.44022,0.2201 0.88043,0.2201 l 4.84232,0.33016 c 0.88042,1.32064 0.88042,2.42116 0.77036,2.97143 0,0 0,0 0,0 0,0.11005 0,0.2201 -0.66031,1.10052 -0.22011,0.11006 -0.33016,0.33016 -0.44021,0.55027 z M 155.98665,306.647 c 0,-0.11005 0,-0.11005 0,-0.2201 0,-0.11005 0.66032,-0.33016 1.21058,-0.33016 5.72274,-0.99047 6.60316,-2.53121 6.93332,-3.08148 0,-0.11005 0.11005,-0.11005 0.11005,-0.11005 0.99048,-1.76084 2.75132,-6.82327 2.86137,-7.04337 0.11006,-0.11006 0.66032,-0.66032 1.10053,-0.88042 0.55026,-0.22011 1.10053,0.44021 1.21058,0.44021 v 0 c 0.22011,0.11005 1.43069,1.10052 1.43069,1.10052 0.44021,0.33016 1.43068,0.55027 1.43068,0.55027 0.33016,0.11005 1.21058,0.44021 1.65079,0.55026 0.22011,0.11005 0.33016,0.11005 0.44021,0.11005 0.11005,0 0.88042,0.55027 0.88042,0.66032 0,0.11005 0.11006,0.11005 0.11006,0.22011 0,0.11005 0.11005,0.33015 0.11005,0.44021 l -0.33016,0.33015 -4.84232,3.52169 c -3.85184,2.97142 -8.91427,9.35448 -8.91427,9.46453 l -2.86137,3.52169 -0.33016,0.55026 -0.33015,-1.98094 -1.21058,-5.50264 c -0.44022,-1.65079 -0.66032,-2.091 -0.66032,-2.31111 z m -6.16295,-0.88042 c -0.11006,0 -0.22011,0 -0.33016,0 -1.65079,0 -2.64127,-0.44021 -3.19153,-1.21058 -0.77037,-1.21058 0,-2.97142 0,-3.08147 l 0.55026,-1.21058 c 0.11006,-0.22011 0.22011,-0.22011 0.44022,-0.11006 0.11005,0 0.11005,0 0.2201,0 0,0 0,0 0.11005,0 0.22011,0 0.33016,0 0.44021,-0.2201 0.11006,-0.22011 -0.2201,-0.66032 -0.2201,-0.66032 -0.22011,-0.2201 -0.44021,-0.55026 -0.44021,-0.99047 0,-0.22011 0.11005,-0.44021 0.33016,-0.66032 v 0 0 c 0,0 0,-0.11005 0,-0.11005 -0.11006,-0.11005 -0.33016,-0.11005 -0.33016,0 v 0 c -0.66032,0.44021 -0.99048,0.11005 -0.99048,0.11005 -0.11005,-0.2201 -0.2201,-0.33016 -0.11005,-0.55026 0.11005,-0.22011 0.33016,-0.44021 0.33016,-0.44021 v 0 c 0,0 0.33016,-0.33016 1.65079,0 0.33016,0.11005 1.10053,0 1.10053,0 0.55026,-0.11006 0.55026,-0.55027 0.55026,-0.55027 v 0 0 c -0.33016,-0.2201 -0.44021,-0.33016 -0.55026,-0.44021 -0.11006,-0.11005 -0.11006,-0.11005 -0.33016,-0.2201 -0.11005,0 -0.11005,0 -0.22011,0.11005 -0.2201,0.2201 -0.44021,0.55026 -1.21058,0 -0.55026,-0.55026 -0.77037,-0.55026 -0.88042,-0.55026 -0.11005,0 -0.2201,0 -0.33016,0 -0.33015,0 -0.44021,0 -0.55026,-0.55027 l -0.11005,-2.64126 v -0.77037 l 1.10052,0.11005 c 0.55027,0.22011 0.99048,0.22011 1.10053,0.22011 v 0 c 0.11005,0 0.44021,-0.11006 0.66032,-0.33016 0.2201,-0.22011 0.44021,-0.55027 0.11005,-1.21058 l -0.11005,-0.11005 -0.11006,0.11005 c -0.33015,0.66031 -1.65079,0.55026 -1.87089,0.55026 -1.21058,-0.88042 -2.75132,-0.44021 -2.75132,-0.44021 -0.55026,0.11005 -0.99047,0 -1.10053,-0.2201 -0.33015,-0.44022 0.11006,-1.10053 0.11006,-1.10053 l 1.98095,-3.08148 c 0,0 2.20105,-2.97142 3.30158,-4.95237 v 0 c 0.2201,-1.98095 0.55026,-2.75132 0.66031,-2.86137 0.77037,-0.88042 1.10053,-1.65079 1.10053,-1.8709 1.10053,-3.74179 1.32063,-4.51216 1.32063,-4.51216 0.11006,-0.55026 0.88042,-1.87089 1.76085,-1.98095 0.11005,0 0.2201,0 0.33015,0 0.55027,-0.11005 1.43069,-0.2201 1.76085,-0.11005 0.11005,0 0.2201,0 0.33016,0 0.55026,0.11005 1.43068,0.22011 2.75131,0.77037 1.32064,0.33016 0.44021,3.63174 0.44021,3.63174 l -1.87089,4.07195 c -0.22011,0.33016 0.55026,0.99047 0.55026,0.99047 0.11005,0.11006 1.10053,1.32064 1.10053,1.43069 0,0 0.88042,0.77037 0.77037,2.31111 0.11005,0.99047 -0.11005,1.32063 -0.33016,1.76084 -0.11005,0.22011 -0.22011,0.33016 -0.33016,0.55026 v 0 c 0,0.88043 0.33016,2.42116 0.44021,2.53122 0,0 0,0 0,0.11005 -0.44021,0.33016 -1.10052,0.77037 -2.3111,1.21058 -0.22011,0.11005 -0.55027,0.2201 -0.88043,0.33016 -1.54073,0.55026 -2.091,0.77037 -2.091,0.99047 0,0 0,0.11005 0,0.11005 0.11006,0.11006 0.33016,0.11006 0.66032,0.11006 0.33016,0 0.66031,0 0.77037,-0.11006 0.44021,-0.11005 1.54074,-0.44021 1.98095,-0.66031 0.33015,-0.11006 1.43068,-0.55027 1.98095,-0.88042 0.11005,0.44021 0.2201,0.88042 0.2201,1.21058 -0.2201,0.11005 -0.44021,0.2201 -0.66032,0.33015 -0.33015,0.22011 -0.88042,0.44021 -1.32063,0.66032 -0.2201,0.11005 -0.33016,0.22011 -0.44021,0.22011 -0.2201,0.11005 -0.99047,0.55026 -0.99047,0.66031 0,0 0,0.11005 0,0.11005 0.11005,0.11006 0.44021,0.22011 0.55026,0.22011 0,0 0,0 0,0 0.11005,0 0.66032,-0.22011 1.32063,-0.55026 0.22011,-0.11006 0.44021,-0.22011 0.55027,-0.22011 0.33015,-0.11005 0.77037,-0.33016 0.99047,-0.44021 0,0 0,0.11005 0,0.11005 0.22011,2.53122 0.33016,2.97143 0.33016,3.08148 0.2201,0.2201 1.65079,0.2201 4.40211,0 1.21058,0.55026 1.43068,1.43068 1.43068,1.87089 l -0.2201,0.77037 c -0.44021,0.99048 -2.091,5.50264 -2.091,5.50264 0,0.11005 -0.11006,0.2201 -0.11006,0.33016 -0.2201,0.55026 -0.55026,1.32063 -1.87089,1.54074 -1.32064,0.55026 -2.20106,0.77036 -3.7418,0.99047 -2.64126,0.55026 -4.51216,0.66032 -4.62221,0.66032 z m -10.0148,-38.84861 c 0.44021,0 0.88042,0.22011 1.43069,0.55027 0.33015,0.2201 0.77037,0.77037 1.10052,0.99047 -0.77037,0.55027 -1.43068,1.10053 -1.65079,1.32064 -0.11005,0.11005 -0.33016,0.33015 -0.55026,0.55026 -1.98095,-0.33016 -3.08148,0.55026 -3.41164,0.88042 -0.99047,1.10053 -2.20105,1.10053 -2.86137,0.77037 0.33016,-0.33016 0.88043,-0.66032 1.10053,-0.88042 0.55027,-0.44021 0.99048,-1.10053 1.54074,-1.8709 0.55026,-0.77037 2.31111,-1.98095 2.42116,-1.98095 z m 7.81374,0.44022 c -0.2201,0.11005 -0.44021,0.2201 -0.66031,0.33015 0,0 -0.11006,-0.11005 -0.11006,-0.11005 -0.88042,-0.66032 -2.091,-0.44021 -2.75131,-0.2201 -0.22011,0.11005 -0.55027,0.2201 -0.88043,0.55026 -0.11005,0 -0.33015,0 -0.44021,-0.22011 l -0.11005,-0.11005 c -0.44021,-0.44021 -0.88042,-0.88042 -0.99047,-0.99047 -0.44021,-0.22011 -0.88042,-0.44021 -1.21058,-0.55027 l 0.11005,-0.2201 0.33016,-0.44021 c 0,0 0.55026,-0.77037 0.99047,-1.10053 h 0.11006 c 0.33015,-0.22011 0.77036,-0.33016 1.10052,-0.33016 0,0 0,0 0,0 l 1.98095,0.11005 c 0,0 1.32063,0 1.54074,1.10053 l 0.66032,1.8709 c 0.11005,0 0.11005,0.11005 0.33015,0.33016 z m 3.7418,1.21058 -0.88043,1.43068 c 0,0 -0.11005,0.22011 -0.2201,0.44021 -0.11005,0 -0.33016,0 -0.55027,-0.11005 -0.33015,-0.11005 -1.21058,-0.99048 -1.87089,-1.65079 -0.11005,-0.11005 -0.11005,-0.11005 -0.22011,-0.22011 0.11006,-0.11005 0.33016,-0.11005 0.55027,-0.2201 0.11005,0 0.11005,0 0.2201,0 0.44021,0.33016 1.21058,0.55026 2.20106,0.33016 0,0 0.66031,-0.11006 0.99047,-0.11006 -0.11005,0 -0.2201,0.11006 -0.2201,0.11006 z m 39.61897,40.49939 c 0,0 0,0 0,0 -0.11005,0 -0.11005,0 -0.2201,0 v 0 c -2.64127,0.55027 -3.52169,0.22011 -3.7418,-0.2201 -0.2201,-0.22011 -0.11005,-0.55027 0,-0.77037 0.11006,0 0.22011,-0.11005 0.77037,-1.98095 0.22011,-0.55026 -0.33016,-1.32063 -0.44021,-1.43069 -0.11005,-0.2201 -0.99047,-1.21058 -1.32063,-1.54073 0,0 0.11005,-0.11006 0.11005,-0.11006 0,0 0,0 0,0 0.33016,0 1.21058,-0.2201 1.21058,-0.2201 1.8709,-0.22011 3.52169,-0.22011 3.9619,2.31111 0,0.33015 -0.44021,2.20105 -0.33016,3.96189 z m -25.09202,-14.63701 v 0 c -0.2201,-0.33016 -0.33016,-0.77037 -0.33016,-0.88042 0,-0.11005 0,-0.2201 -0.11005,-0.33016 0,0 0,0 0,0 h -0.11005 c 0,0 -0.66032,-0.55026 -0.66032,-1.21058 0,-0.33016 -0.11005,-0.66031 -0.11005,-1.10052 -0.11005,-0.55027 -0.2201,-1.10053 -0.11005,-1.21058 0.11005,-0.11006 0.33016,-0.33016 0.55026,-0.44022 0.22011,0.22011 0.44021,0.44022 0.55026,0.55027 0,0.11005 0.11006,0.11005 0.11006,0.2201 0.33016,0.44021 0.55026,0.88043 1.21058,0.88043 h 0.11005 c 0.55026,0 0.88042,0.11005 1.32063,0.2201 -0.33016,0 -0.77037,0.11005 -0.88042,0.22011 -0.33016,0.33015 -0.66032,0.77037 -0.77037,1.32063 0,0.33016 0,0.77037 0.11005,1.21058 v 0.11005 c 0,0.11005 0.11006,0.22011 0.22011,0.44021 -0.22011,0.22011 -0.44021,0.33016 -0.66032,0.55027 -0.33015,-0.33016 -0.33015,-0.55027 -0.44021,-0.55027 z m -3.08147,-2.97142 -0.11006,-0.22011 c -0.2201,-0.66031 -0.44021,-1.43068 -0.44021,-1.98095 0,-0.44021 0,-0.99047 -0.11005,-1.32063 0.22011,0.11006 0.44021,0.22011 0.66032,0.33016 0.2201,0.11005 0.44021,0.33016 0.66031,0.33016 0.11006,0 0.22011,0.11005 0.33016,0.11005 0,0 0.11005,0 0.11005,0 -0.11005,0.22011 -0.11005,0.33016 -0.2201,0.44021 -0.11005,0.33016 -0.11005,0.88042 -0.11005,1.32063 0,0.44022 0.11005,1.21058 0.2201,1.54074 0.11005,0.22011 0.22011,0.66032 0.22011,0.99048 -0.44021,0 -0.88042,0.11005 -1.21058,0.11005 0.2201,-0.33016 0.11005,-1.10053 0,-1.65079 z m -2.31111,-4.62221 c 0.33016,0.11005 0.55026,0.33015 0.77037,0.66031 0,0 0.11005,0.11005 0.11005,0.11005 0.11005,0.77037 0.22011,2.09101 0.33016,2.64127 0.11005,0.33016 0.22011,0.55026 0.33016,0.77037 0.11005,0.33016 0.2201,0.66031 0.2201,0.99047 0,0.33016 0,0.88042 0,1.32064 -1.32063,0 -1.43068,-0.11006 -1.54073,-0.11006 -0.22011,-0.2201 -0.66032,-3.30158 -0.88043,-5.17247 l -0.33015,-1.54074 c 0.33015,0 0.66031,0.2201 0.99047,0.33016 z m -0.66032,-3.41164 c 0.11006,-0.55026 0.11006,-1.10053 0.11006,-1.65079 0.33015,-0.33016 0.66031,-0.77037 1.10052,-0.77037 0.77037,-0.2201 1.65079,0 2.31111,0.11005 0.66032,0.22011 1.76084,0.44022 2.31111,1.21058 0.11005,0.22011 0.33016,0.44022 0.44021,0.66032 0.2201,0.44021 0.55026,0.88042 0.99047,1.10053 0.33016,0.11005 1.10053,0.33016 1.54074,0.44021 0.11005,0 0.22011,0.11005 0.33016,0.11005 0.44021,0.11005 0.77037,0.33016 0.99047,0.55026 0,0 0,0 0,0 0.11006,0.44022 0.55027,1.76085 0.55027,3.08148 0,0.22011 -0.11006,0.99047 -0.44021,1.76084 0,0.11006 -0.11006,0.11006 -0.11006,0.22011 -0.11005,0.2201 -0.11005,0.33016 -0.2201,0.33016 0,0 -0.11005,0 -0.22011,0 -0.2201,-0.11006 -0.33016,-0.11006 -0.44021,-0.22011 -0.2201,-0.11005 -0.33016,-0.11005 -0.55026,-0.2201 -0.44021,-0.11006 -0.99048,-0.11006 -0.99048,-0.11006 0,0 -0.99047,0.22011 -1.43068,-0.33015 -0.22011,-0.22011 -0.22011,-0.55027 -0.33016,-0.77037 -0.11005,-0.33016 -0.22011,-0.66032 -0.44021,-0.66032 -0.11005,0 -0.22011,-0.11005 -0.22011,-0.11005 0,0 0.11006,-0.11005 0.11006,-0.11005 0.33015,-0.55027 0.44021,-0.77037 0.55026,-1.21058 0.11005,-0.44022 0,-1.32064 -0.11005,-1.6508 -0.22011,-0.66031 -0.66032,-1.43068 -0.77037,-1.65079 -0.22011,-0.33015 -1.65079,-0.88042 -1.98095,-0.88042 0,0 0,0 0,0 -0.11005,0 -0.11005,0.11006 -0.11005,0.11006 0,0.2201 0.88042,0.77036 0.99047,0.88042 0.55027,0.33015 0.99048,1.21058 1.21058,1.76084 0.11005,0.44021 -0.2201,1.65079 -0.33016,1.8709 -0.2201,0.11005 -1.21058,0.44021 -1.76084,0.2201 -0.33016,-0.11005 -0.66032,-0.2201 -0.88042,-0.44021 -0.22011,-0.11005 -0.44021,-0.2201 -0.77037,-0.44021 -0.44021,-0.22011 -1.21058,-1.10053 -1.65079,-1.54074 -0.22011,-0.99047 0.2201,-1.65079 0.2201,-1.65079 z m 1.21058,-5.50263 c 0.77037,0.55026 1.65079,1.43068 1.98095,1.76084 l 0.11006,0.11005 c 0.11005,0.11005 0.2201,0.22011 0.2201,0.44021 -0.66032,-0.11005 -1.32063,-0.2201 -1.65079,-0.2201 -0.44021,0 -1.21058,0.2201 -1.76084,0.66031 -0.11006,0 -0.11006,0.11006 -0.11006,0.11006 -0.44021,-1.10053 -1.43068,-2.09101 -1.43068,-2.20106 -0.66032,-0.66031 -0.55026,-0.99047 -0.55026,-0.99047 0.11005,-0.22011 0.2201,-0.55027 0.33015,-0.77037 0.66032,0.11005 1.8709,0.33016 2.86137,1.10053 z m 14.30686,11.66558 c -0.11006,0.55027 -0.33016,1.43069 -0.55027,1.8709 -0.33016,0.66032 -0.77037,0.88042 -1.21058,1.10053 -0.2201,0.11005 -0.66031,0.11005 -0.88042,0.11005 -0.11005,-0.22011 -0.44021,-0.44021 -0.77037,-0.55026 -0.2201,-0.11006 -0.44021,-0.22011 -0.55026,-0.33016 -0.22011,-0.22011 -0.66032,-0.44021 -0.99048,-0.66032 0.44022,-0.33016 0.77037,-0.99047 0.88043,-1.43068 0.11005,-0.77037 0.2201,-1.21058 0.11005,-1.8709 v -0.11005 c 0,-0.55027 0,-0.99048 -0.11005,-1.32064 0.33015,-0.33015 0.99047,-0.88042 2.091,-0.66031 0.88042,0.2201 1.65079,2.091 1.98095,3.08147 0.11005,0.11006 0.11005,0.44021 0,0.77037 z m -6.27301,-6.273 c -0.55026,0.11005 -1.32063,0.2201 -1.65079,-0.11005 -0.2201,-0.22011 -0.55026,-0.55027 -0.77037,-0.88043 -0.2201,-0.33015 -0.44021,-0.55026 -0.55026,-0.77036 -0.33016,-0.33016 -0.77037,-0.55027 -1.21058,-0.77037 -0.11005,-0.33016 -0.66032,-1.21058 -0.99048,-1.43069 -0.77036,-0.66032 -1.32063,-1.10053 -1.76084,-1.43068 -0.2201,-0.11006 -0.44021,-0.33016 -0.66032,-0.44021 -1.21058,-0.99048 -2.53121,-1.54074 -3.08147,-1.6508 0.2201,-0.77036 0.44021,-1.32063 0.55026,-1.76084 0.33016,0.11005 0.77037,0.11005 1.21058,0.11005 1.10053,0.11006 2.42116,0.11006 3.52169,0.99048 0.11005,0.11005 0.2201,0.66031 0.2201,1.21058 0.11006,0.77037 0.22011,1.65079 0.55027,1.76084 0.33016,0.22011 0.77037,0.33016 1.21058,0.55026 0.88042,0.33016 1.87089,0.77037 2.53121,1.54074 0.88042,0.88042 0.88042,2.53122 0.88042,3.08148 z m 2.31111,12.65606 c -0.66032,-0.33016 -1.10053,-0.77037 -1.32063,-0.88042 0,0 -0.11006,-0.11005 -0.11006,-0.11005 -1.10052,-0.88043 -1.65079,-0.99048 -1.65079,-1.10053 -0.11005,0 -0.11005,0 -0.2201,0 0,0 0,0 0,0 -0.33016,-0.33016 -0.77037,-0.88042 -0.66032,-1.21058 0.11005,-0.44021 0.33016,-0.77037 0.55026,-0.88042 0.22011,-0.11006 0.99048,-0.11006 1.54074,-0.11006 0,0 0,0 0,0 0.44021,0.22011 1.32064,0.77037 1.32064,0.77037 0.55026,0.33016 0.88042,0.77037 1.10052,1.32064 0.22011,0.77037 -0.11005,1.87089 -0.2201,2.20105 -0.11006,0 -0.22011,0 -0.33016,0 z m 5.50263,3.74179 c -0.11005,-0.2201 -0.33015,-0.66031 -0.55026,-1.10052 -0.2201,-0.33016 -0.77037,-0.88043 -1.65079,-1.6508 -0.11005,-0.11005 -0.55026,-0.2201 -1.10053,-0.44021 0,-0.11005 0,-0.2201 -0.11005,-0.2201 l -0.11005,-0.11005 c -0.22011,-0.22011 -0.22011,-0.22011 -0.11006,-0.77037 v -0.22011 c 0,-0.55026 0,-0.66031 0,-0.77037 0,-0.11005 0,-0.11005 0,-0.2201 0,-0.11006 0,-0.33016 -0.11005,-0.55027 0.22011,0 0.33016,-0.11005 0.66032,-0.11005 0.55026,-0.11005 1.32063,-0.66032 1.87089,-1.43068 0.22011,-0.22011 0.44022,-0.88043 0.55027,-1.54074 0.33016,-0.11006 0.88042,-0.22011 1.21058,-0.11006 0.55026,0.22011 1.87089,0.88043 2.091,1.32064 0.11005,0.2201 0.33016,0.77037 0.44021,1.21058 0,0.11005 0.11005,0.33016 0.11005,0.44021 l -2.20105,0.2201 -1.43069,0.33016 -1.54073,0.66032 0.44021,0.44021 v 0 0 c 0.11005,0 1.54073,-0.22011 1.65079,-0.22011 2.20105,-0.66031 3.52168,-0.2201 3.63174,-0.2201 v 0 c 0,0 0.11005,0 0.11005,0.11005 0,0.11005 0.11005,0.22011 0.11005,0.22011 0.33016,0.44021 0.55027,0.88042 0.55027,1.10052 0,0.22011 -0.22011,0.99048 -0.66032,1.65079 -0.22011,0.11006 -0.77037,0.33016 -1.21058,0.33016 l -0.88042,-0.11005 -0.66032,-0.11005 c -0.11005,0 -0.33016,-0.11006 -0.44021,-0.11006 0,0 -0.33016,-0.11005 -0.55026,-0.2201 -0.55027,-0.44021 -0.66032,-0.44021 -0.66032,-0.44021 0,0 -0.44021,-0.11006 -0.77037,-0.22011 l -0.77037,-0.11005 0.44021,0.55026 0.44021,0.22011 0.44022,0.11005 0.66031,0.55026 0.66032,0.44022 0.33016,0.2201 0.55026,0.22011 0.99047,0.11005 h 1.21058 c 0.44021,0.11005 0.88043,0.2201 0.88043,0.33016 l 0.11005,0.33016 c -0.11005,0 -0.11005,0 -0.22011,0.11005 0,0 -1.21058,0.77037 -3.41163,0.77037 -0.11005,0 -0.33016,0 -0.44021,0 z m 5.50264,-11.77564 c -0.11005,0.33016 -0.22011,0.66032 -0.33016,0.88042 -0.2201,-0.33015 -0.44021,-0.55026 -0.55026,-0.77036 -0.11005,-0.22011 -0.11005,-0.44022 -0.22011,-0.66032 -0.2201,-0.66032 -0.33016,-1.43069 -1.32063,-2.20106 -0.66032,-0.44021 -1.65079,-0.77036 -2.53121,-0.99047 -0.88042,-0.22011 -1.76085,-0.55026 -2.31111,-0.88042 -0.44021,-0.22011 -0.66032,-1.21058 -0.99047,-2.20106 -0.22011,-0.66031 -0.33016,-1.32063 -0.55027,-1.76084 -0.44021,-0.99047 -1.43068,-1.21058 -2.3111,-1.32063 -0.22011,0 -0.44021,-0.11005 -0.55027,-0.11005 -0.77037,-0.22011 -2.53121,-1.54074 -3.63174,-4.07195 -1.10052,-2.53122 -2.3111,-2.75132 -2.97142,-2.86137 h -0.11005 c -0.44021,-0.11006 -1.98095,0 -3.08148,0.11005 -0.44021,0 -0.77037,0.11005 -0.88042,0.11005 -0.11005,0 -0.33016,-0.11005 -0.55026,-0.2201 0.11005,-0.55027 0.44021,-1.32064 1.10052,-1.32064 1.10053,0 2.97143,0 4.95237,1.21058 0.44022,0.33016 0.99048,0.66032 1.6508,0.99048 1.87089,1.10052 4.07195,2.53121 5.72274,2.97142 h 0.11005 c 1.98095,0.55026 2.86137,0.77037 3.08148,1.65079 0.11005,0.33016 0.11005,0.77037 0.2201,1.32063 0.11005,1.21058 0.33016,2.64127 0.88042,3.52169 0.44021,0.55026 1.21058,1.10053 1.98095,1.65079 0.88042,0.55026 1.76084,1.10053 2.20106,1.8709 0.88042,1.21058 1.10052,2.42116 0.99047,3.08147 z m 0.55026,25.42218 v -0.22011 h 0.11006 l 1.32063,0.99048 1.10053,1.10052 c 0,0 0.55026,0.55027 0.55026,1.10053 v 0.77037 h -0.22011 l -1.54073,-0.11005 v 0 0 c 0,0 -0.11006,0.11005 -0.33016,0 v 0 c 0,0 0,0 0,0 -0.11006,0 -0.77037,-0.11005 -0.99048,-0.77037 l 0.11006,-1.21058 0.11005,-0.55026 v 0 z m 7.70369,3.08147 v 0 c -0.11005,0.55027 -0.2201,0.99048 -0.2201,1.32064 -0.33016,-0.33016 -0.88042,-0.66032 -1.54074,-0.66032 -0.11005,0 -0.66032,-0.11005 -0.99047,-0.11005 h -0.99048 c -0.11005,-0.55027 -0.44021,-2.31111 -1.32063,-3.30158 -0.66032,-0.66032 -1.10053,-0.99048 -1.54074,-1.32064 -0.22011,-0.11005 -0.44021,-0.33015 -0.66032,-0.55026 -0.66031,-0.55026 -1.76084,-1.43068 -1.76084,-1.43068 -0.55026,-0.66032 -0.55026,-1.10053 0.11005,-2.31111 0.33016,-0.33016 0.44021,-2.42116 0.55027,-3.08148 0.44021,-0.11005 0.77037,-0.11005 1.10052,-0.2201 0,0.33016 0,1.21058 0.22011,2.091 0.11005,0.66031 -0.11005,1.32063 -0.22011,1.87089 -0.11005,0.33016 -0.2201,0.66032 -0.11005,0.77037 0.11005,0.33016 1.43069,1.54074 1.98095,1.8709 0.11005,0 0.22011,0.11005 0.44021,0.22011 0.66032,0.33015 1.8709,0.88042 2.31111,1.21057 0.33016,0.22011 0.88042,0.77037 1.43068,1.32064 0.33016,0.33016 0.66032,0.66031 0.88042,0.88042 0.22011,0.11005 0.44022,0.55026 0.66032,0.77037 -0.2201,0.44021 -0.2201,0.66031 -0.33016,0.66031 z m -5.28253,-14.96716 c 0,0 0,0.11005 0,0.11005 l -0.2201,0.66031 c 0,0.11006 -0.11006,0.22011 -0.11006,0.22011 0,0 0,0 0,0.11005 l -0.11005,0.33016 c -0.2201,0.77037 -3.63174,1.54074 -5.06242,1.76084 h -0.77037 -0.66032 -0.33016 c 0,-0.2201 0,-0.44021 0,-0.44021 l -0.11005,-0.66031 c 0.11005,-0.11006 0.22011,-0.11006 0.22011,-0.11006 1.98095,0 3.74179,-0.77036 3.74179,-0.77036 0.11005,0 1.10053,-0.44022 1.54074,-0.66032 0.33015,-0.11005 0.77037,-0.55026 0.77037,-0.88042 0,-0.11006 0,-0.11006 0,-0.11006 -0.11006,0 -0.22011,0 -0.44022,0 -0.88042,0.33016 -3.74179,1.32064 -3.85184,1.43069 l -0.66032,0.11005 h -0.99047 c -0.33016,0 -0.55026,-0.55026 -0.66032,-0.99047 0.11006,-0.11005 0.33016,-0.33016 1.32064,-0.33016 0.11005,0 0.33015,0 0.44021,0 v 0 c 0,0 3.08147,-0.55026 4.84232,-1.8709 0.11005,0 0.44021,-0.11005 0.77036,0 0,0.22011 0.11006,0.44022 0.11006,0.44022 0.33016,1.10052 0.2201,1.65079 0.2201,1.65079 z m 2.20106,-9.46454 c -0.22011,3.74179 -1.8709,5.17248 -2.31111,5.50264 0,0 0,0 0,0 0,0 0,0 0,0 -0.11005,0.11005 -0.22011,0.11005 -0.33016,0.2201 -0.33016,0.33016 -0.77037,0.66032 -1.32063,0.99048 -0.11005,0 -0.22011,0.11005 -0.33016,0.11005 -0.11005,0 -0.2201,0.11005 -0.33016,0.11005 -0.33015,-0.11005 -0.77037,-0.33015 -0.99047,-0.66031 0.2201,-0.44021 0.66032,-1.43069 0.44021,-2.091 -0.22011,-0.55027 -0.55026,-0.88043 -0.66032,-1.21058 -0.11005,-0.11006 -0.11005,-0.22011 -0.2201,-0.33016 -0.11005,-0.11005 -0.11005,-0.44021 -0.11005,-0.88042 -0.11006,-0.77037 -0.22011,-1.65079 -0.44022,-2.09101 -0.66031,-0.88042 -1.87089,-1.76084 -2.42116,-2.091 -0.33015,-0.11005 -0.77036,-0.11005 -1.21058,-0.11005 -0.2201,0 -0.55026,0 -0.66031,0 0,-0.99047 -0.99048,-3.63174 -1.8709,-4.51216 -0.2201,-0.22011 -1.43068,-0.44021 -1.87089,-0.33016 -0.44021,0.11005 -1.54074,0.22011 -1.8709,-0.2201 0,0 -0.11005,-0.11006 -0.11005,-0.11006 0,-0.11005 -0.11005,-0.11005 -0.11005,-0.2201 0,-0.11006 -0.11006,-0.11006 -0.11006,-0.22011 0,0 0,-0.11005 0,-0.11005 0,-0.11005 -1.10052,-3.30158 -1.43068,-4.29206 -0.44021,-0.88042 -1.10053,-1.10052 -1.76085,-1.32063 -0.66031,-0.2201 -1.65079,-0.55026 -2.091,-0.88042 -0.2201,-0.11005 -0.33016,-0.66032 -0.33016,-1.21058 -0.11005,-0.77037 -0.2201,-1.65079 -0.77036,-2.091 -0.88043,-0.77037 -4.18201,-1.10053 -4.29206,-1.10053 -0.11005,0 -0.33016,0 -0.55026,0 0,-0.11005 0,-0.2201 0,-0.2201 l 0.11005,-0.99048 c 0.33016,0.11005 0.77037,0.11005 1.21058,0 0.66031,-0.11005 1.98095,-0.33016 2.97142,-0.2201 0.66032,0 1.10053,0.55026 1.65079,1.10052 0.11005,0.11006 0.33016,0.33016 0.44021,0.55027 0.33016,0.33015 0.66032,0.99047 0.99048,1.65079 0.44021,0.88042 0.99047,1.87089 1.76084,2.53121 0.99048,0.88042 2.53121,1.54074 3.41163,1.98095 0.22011,0.11005 0.44022,0.2201 0.55027,0.2201 0.33016,0.11006 0.33016,0.33016 0.44021,0.88043 0.11005,0.33015 0.11005,0.66031 0.33016,1.21058 0.55026,1.54073 1.32063,2.20105 2.091,2.64126 0.44021,0.33016 1.43068,0.66032 2.31111,0.99047 0.88042,0.33016 1.87089,0.66032 2.20105,0.88043 0.33016,0.2201 0.44021,0.77037 0.55026,1.32063 0.11006,0.44021 0.11006,0.88042 0.33016,1.21058 0.33016,0.44021 1.10053,1.10053 1.76085,1.65079 0.44021,0.33016 0.77036,0.66032 0.99047,0.88042 0.33016,0.33016 0.55026,0.88042 0.66032,1.21058 0.11005,0.33016 0.11005,0.44021 0.2201,0.44021 0,0 0,0 0,0 0,0 0.11005,0 0.11005,0 0.22011,-0.2201 0.11006,-0.88042 -0.11005,-1.76084 -0.11005,-0.33016 -0.55026,-0.77037 -1.21058,-1.32063 -0.11005,-0.11006 -0.2201,-0.22011 -0.33016,-0.33016 0.33016,-0.33016 0.66032,-0.88042 0.66032,-1.54074 0.11005,-1.10053 -0.33016,-2.64127 -0.88042,-3.41163 -0.55027,-0.77037 -1.21058,-1.65079 -2.31111,-1.98095 -0.2201,-0.11006 -0.44021,-0.11006 -0.55026,-0.22011 -0.44021,-0.11005 -0.55027,-0.2201 -0.99048,-0.55026 -0.55026,-0.55027 -1.10052,-3.08148 -1.21058,-4.95237 -0.11005,-1.32064 -0.66031,-1.8709 -1.54073,-2.20106 -0.44022,-0.2201 -1.32064,-0.44021 -2.31111,-0.66031 -0.77037,-0.22011 -1.54074,-0.44022 -2.20106,-0.66032 -0.88042,-0.33016 -2.64126,-1.54074 -3.96189,-2.42116 -0.66032,-0.44021 -1.21058,-0.88042 -1.54074,-0.99047 -0.99048,-0.55027 -5.17248,-1.32064 -6.0529,-0.99048 -0.44021,0.22011 -0.66032,0.44021 -0.77037,0.77037 -0.11005,-0.22011 -0.33016,-0.33016 -0.33016,-0.33016 -0.33016,-0.2201 -1.10052,-0.55026 -1.21058,-0.55026 -0.11005,0 -0.11005,0 -0.2201,0 0.2201,-0.22011 0.55026,-0.44021 0.99047,-0.66032 0.66032,-0.33016 1.98095,-0.55026 2.97142,-0.55026 1.10053,0 1.54074,-0.22011 1.54074,-0.22011 h 0.11006 l -0.11006,-0.11005 c 0,0 -0.44021,-0.22011 -1.10052,-0.33016 -0.44022,-0.11005 -1.43069,0 -2.31111,0.11005 -0.44021,0 -0.88042,0.11006 -0.99048,0.11006 -0.55026,0 -2.091,1.21058 -2.3111,1.32063 -0.44021,-0.11005 -0.88042,-0.11005 -1.10053,-0.11005 0,0 0,0 -0.11005,0 -0.44021,0 -1.32063,0.11005 -1.43069,0.11005 -0.44021,0.11005 -0.88042,0.22011 -0.88042,0.33016 -0.2201,-0.33016 -0.33016,-0.77037 -0.33016,-1.21058 0,-0.44021 0.22011,-0.88042 0.44021,-1.10053 v 0 c 0.44021,-0.55026 1.54074,-1.32063 1.54074,-1.32063 0.33016,-0.22011 3.52169,-1.65079 6.93332,-1.76084 3.08148,-0.11006 5.94285,0 8.69417,0.33015 2.091,0.22011 7.81374,2.75132 7.81374,2.75132 1.76084,0.88042 3.08147,2.86137 3.08147,2.86137 1.10053,1.10053 3.41164,6.49311 3.41164,6.49311 1.43068,4.84232 1.65079,5.61269 1.76084,5.8328 v 0 c 0,0.11005 1.21058,3.96189 1.43069,10.455 z m -57.33746,12.32591 c 0.11005,-0.11006 0.33015,-0.33016 0.66031,-0.22011 0.11005,0.11005 0.55026,0.44021 0.77037,0.44021 0,0 0.33016,0 0.99047,0 0.22011,0 0.33016,-0.11005 0.33016,-0.11005 0.11006,-0.11005 0,-0.33016 0,-0.44021 0,-0.11005 -0.11005,-0.11005 -0.2201,-0.11005 v 0 c -0.22011,0 -0.77037,0 -0.77037,0 v 0 0 c 0,0 0,0 -0.11005,0 -0.11006,0 -0.22011,-0.11006 -0.55027,-0.55027 -0.11005,-0.11005 -0.2201,-0.2201 -0.44021,-0.2201 -0.11005,0 -0.2201,0 -0.44021,-0.11006 h -0.2201 c -0.11006,0 -0.22011,0 -0.22011,-0.11005 -0.11005,-0.11005 0,-0.33016 0,-0.33016 l 0.11005,-0.55026 c 0,-0.11005 0.33016,-1.43069 0,-2.091 0,0 0.11006,0 0.11006,0.11005 l 0.88042,0.11005 1.10052,0.44021 c 0,0 0.55027,0.22011 1.76085,-0.55026 v 0 0 c -0.11006,-0.99047 -0.99048,-2.31111 -0.99048,-2.31111 v -0.11005 l -0.2201,0.44021 v 0 c 0,0 0.2201,0.66032 0.33016,0.77037 0.2201,0.55026 0.2201,0.77037 0.2201,0.88042 0,0.11006 -0.11005,0.11006 -0.2201,0.11006 v 0 c -0.33016,0.11005 -0.99048,0.2201 -1.43069,-0.33016 v 0 c 0,0 -0.66032,-0.44021 -1.65079,-0.55027 0,0 -1.21058,0.11006 -1.54074,0.11006 -0.55026,0 -0.99047,-0.11006 -1.10053,-0.22011 -0.2201,-0.2201 -0.2201,-0.55026 -0.2201,-0.88042 0,-0.11005 0,-0.22011 0,-0.33016 0.11005,-0.2201 0.99047,-1.8709 1.76084,-2.53121 l 0.44021,-0.55026 1.32064,-2.20106 0.99047,-1.32063 c 0,0 1.21058,-1.21058 1.21058,-2.20106 l 0.11005,-1.21058 v 0 0 c 0,0 -0.11005,-0.66031 0.22011,-1.43068 l 0.55026,-1.10053 0.55027,-1.54074 0.44021,-1.54073 0.2201,-2.09101 v -0.33015 c 0.22011,-0.33016 0.77037,-1.21058 0.88042,-1.8709 0.11006,-0.77037 0.88042,-1.43068 1.54074,-1.76084 0.33016,-0.22011 0.77037,-0.33016 0.99048,-0.44021 0.2201,-0.11006 0.33015,-0.11006 0.44021,-0.22011 v 0 c 0,0 0.2201,-0.2201 0.11005,-0.44021 0,-0.11005 -0.22011,-0.22011 -0.44021,-0.33016 0,0 0,0 0,0 -0.22011,0 -0.99048,0.44021 -1.21058,0.55027 -0.55027,0.33015 -1.10053,0.66031 -1.43069,0.99047 -0.2201,0.22011 -0.44021,0.55026 -0.66031,0.77037 -0.11006,0.2201 -0.22011,0.44021 -0.44021,0.55026 v 0 c -0.22011,0.22011 -0.33016,0.33016 -0.55027,0.44021 -0.77037,-0.33015 -1.21058,-0.77037 -1.21058,-1.10052 0,0 0,-1.21058 0,-1.65079 0,-0.44022 0,-1.32064 0.55027,-2.09101 0.11005,0.11006 0.44021,0.22011 0.66031,0.22011 0.11006,0 0.11006,0 0.22011,0 0.99047,0 2.42116,-0.44021 3.19153,-1.32063 0.55026,-0.66032 1.54073,-0.77037 2.20105,-0.66032 -0.11005,0.11005 -0.11005,0.11005 -0.2201,0.22011 -0.22011,0.2201 -0.66032,1.65079 -0.44022,1.98094 0,0.11006 0.11006,0.22011 0.11006,0.33016 0.2201,0.44021 0.33016,0.88042 0.66031,0.88042 0,0 0.11006,0 0.11006,0 0.11005,-0.11005 0,-0.33015 0,-0.77036 -0.11006,-0.55027 -0.22011,-1.21058 0,-1.6508 0.77037,-1.32063 2.3111,-2.53121 3.52168,-3.08147 1.43069,-0.66032 2.53122,-0.77037 3.19153,-0.44021 0.55027,0.33016 1.10053,0.99047 1.54074,1.43068 0.2201,0.22011 0.44021,0.44021 0.66032,0.66032 0.33015,0.33016 0.88042,0.44021 1.32063,0.44021 -0.11005,0.33016 -0.22011,0.66032 -0.33016,1.10053 -0.33016,0 -0.99047,0 -1.65079,0 -0.55026,-0.55027 -2.42116,-2.20106 -3.63174,-1.65079 -1.32063,0.55026 -2.31111,1.32063 -2.64126,1.76084 -0.22011,0.22011 -0.55027,0.77037 -0.55027,1.10053 0,0.11005 0,0.11005 0.11005,0.11005 0,0 0,0 0.11006,0 0.33016,0 0.88042,-0.55026 1.10052,-0.77037 0,0 1.43069,-1.21058 2.42116,-1.21058 0,0 0,0 0,0 0.77037,0 1.76085,0.77037 2.09101,1.10053 -0.11006,0.11005 -0.22011,0.11005 -0.44022,0.2201 -0.88042,0.55027 -1.32063,0.99048 -1.54073,1.32064 -0.11006,0.11005 -0.11006,0.11005 -0.22011,0.2201 v 0 c -0.66032,0.66032 -1.10053,0.99048 -1.43068,0.99048 0,0 0,0 0,0 -0.33016,0 -0.99048,-0.33016 -1.43069,-0.55027 -0.2201,-0.11005 -0.44021,-0.2201 -0.66032,-0.2201 -0.33015,-0.11006 -0.77036,0 -1.21058,0.2201 -0.2201,0.11006 -0.55026,0.33016 -0.66031,0.66032 0,0 0,0.11005 0,0.11005 0.11005,0.11005 0.44021,0.11005 1.10053,0 0.2201,0 0.33015,0 0.44021,0 0.2201,0 0.88042,0.33016 1.32063,0.55027 0.33016,0.11005 0.55026,0.2201 0.66031,0.33015 0.11006,0 0.11006,0 0.22011,0 0.66032,0 1.76084,-0.88042 1.8709,-0.99047 0.11005,-0.11005 0.33015,-0.33016 0.44021,-0.55026 0.44021,-0.55027 0.99047,-1.32064 1.87089,-1.76085 0.77037,-0.44021 1.43069,-0.33016 1.8709,-0.2201 -0.11005,0.33015 -0.22011,0.66031 -0.33016,0.99047 0,0.11005 -0.11005,0.22011 -0.11005,0.33016 -0.22011,0.11005 -0.44021,0.2201 -0.66032,0.55026 -1.21058,1.10053 -2.64126,1.8709 -3.52168,2.31111 0,0 -0.11006,0 -0.11006,0 -0.66031,0.44021 -2.53121,0 -3.30158,-0.22011 -0.11005,0 -0.11005,0 -0.11005,0 0,0 0,0.11006 0,0.11006 0.11005,0.2201 0.66032,0.77037 1.54074,0.99047 0,0 0.33015,0.11005 0.88042,0.11005 0.77037,0 1.98095,-0.11005 2.97142,-0.88042 l 1.8709,-1.43068 c 0,0.11005 0,0.11005 0,0.11005 -0.11006,0.22011 -0.88042,1.98095 -0.99048,2.31111 -0.33015,1.65079 -0.88042,2.53121 -0.88042,2.53121 l -4.40211,6.82327 c -0.55026,0.99047 -0.55026,1.87089 -0.44021,2.3111 0.11006,0.44021 0.22011,0.66032 0.77037,0.66032 0.22011,0 0.55026,0 0.77037,0 0.22011,0 0.44021,0 0.66032,0 0,0 0,0 0.11005,0 0.66032,0 0.77037,0.55026 0.77037,0.55026 0,0.11006 0,1.98095 0,2.20106 0,0.2201 0.11005,1.21058 0.11005,1.21058 0,0 0,0.66031 0.77037,0.99047 0.11005,0.11005 0,0.33016 -0.11005,0.55027 -0.11006,0.11005 -0.33016,1.32063 -0.22011,1.43068 0,0 0,0 0,0.11005 0,0.11006 0.11005,0.22011 0.33016,0.33016 0.88042,0.33016 0.88042,0.99048 0.88042,0.99048 v 0 c 0.11005,0.2201 -0.44021,1.32063 -0.77037,1.98094 -0.55026,0.88043 -0.33016,3.41164 -0.33016,3.52169 0.33016,1.21058 2.64127,1.76085 2.75132,1.76085 2.31111,0.11005 3.9619,0.33015 3.9619,0.33015 h 0.66032 c -0.11006,0.11006 -0.11006,0.11006 -0.22011,0.22011 l -4.182,3.52169 c 0,0 -4.84232,4.4021 -8.69417,4.4021 -0.11005,0 -0.11005,0 -0.2201,0 -0.11005,0 -0.66032,0 -1.21058,-0.11005 -0.66032,0 -0.99048,-0.11005 -1.10053,-0.11005 0,0 -0.11005,0 -0.2201,0 -0.44022,-0.11005 -1.65079,-0.33016 -2.75132,-0.33016 -2.53121,0 -4.182,-0.99047 -4.29206,-2.75132 -0.2201,-1.21058 0,-1.87089 0.11006,-1.98095 0.11005,-0.11005 1.21057,-1.32063 1.21057,-1.87089 0,0 -0.2201,-1.10053 -0.66031,-1.43069 v 0 0 c -0.33016,0.11006 -0.55026,0 -0.66032,-0.2201 -0.44021,-0.44021 -0.33016,-1.21058 0.11006,-1.65079 z m 44.35124,4.62221 c 0,-0.88042 0.55026,-1.98095 0.55026,-2.091 0.88042,-0.99048 1.65079,-1.10053 1.65079,-1.10053 0.44021,0 0.66032,-0.11005 0.88042,-0.33016 0.44021,0 0.77037,0 1.10053,0 -0.33016,0.44021 -2.42116,3.30158 -0.88042,5.28253 1.10053,1.43069 2.20105,3.52169 2.091,4.29206 0,0.11005 -0.11005,0.2201 -0.22011,0.33016 v 0 c -0.33015,0.44021 -0.66031,0.55026 -0.99047,0.55026 -0.44021,-0.11005 -0.55026,-0.66032 -0.55026,-0.77037 l -0.55027,-1.10053 -0.33016,-1.21058 c -0.11005,-0.33015 -0.77036,-1.21057 -0.77036,-1.21057 l -0.33016,-0.44022 -0.33016,-0.33015 -0.44021,-0.55027 -0.44021,-0.33016 -0.22011,-0.2201 c 0,0 0,0 -0.11005,0 -0.11005,-0.22011 -0.11005,-0.55026 -0.11005,-0.77037 z m 2.091,10.34495 -0.66032,-0.44021 c 0,0 -0.11005,-0.11005 -0.2201,-0.33015 l -0.66032,-1.54074 v 0 c 0,0 -0.88042,-1.10053 -1.54074,-1.21058 0,0 -0.11005,0 -0.11005,0 -0.33016,0 -0.55026,0 -0.66032,0 0,0 0,0 -0.11005,0 -0.11005,0 -0.66032,0.2201 -0.88042,0.33016 h -0.55026 c -0.44021,-1.10053 -0.11006,-2.31111 0.2201,-2.86137 0.11005,-0.11006 0.33016,-0.33016 0.55026,-0.33016 0.33016,-0.11006 0.77037,0 1.21058,0.33016 l 1.21058,1.21058 0.77037,0.99047 c 0.11006,0.22011 1.21058,1.8709 1.54074,2.091 0,0 0,0 0,0 0,0 0.11005,0 0.11005,0 0,0 0.11006,0 0.11006,0 0.11005,-0.2201 -0.22011,-0.99047 -0.44021,-1.43068 -0.11006,-0.11006 -0.22011,-0.33016 -0.33016,-0.55027 -0.44021,-0.77037 -0.99048,-1.76084 -1.65079,-2.3111 -0.11006,-0.11006 -0.11006,-0.11006 -0.22011,-0.22011 -0.66031,-0.66032 -1.21058,-1.10053 -2.091,-1.32063 0.66032,-0.77037 1.65079,-0.88042 2.091,-0.99048 v 0 l 0.55027,0.33016 0.44021,0.33016 0.55026,0.66032 0.44021,0.55026 0.44021,1.21058 0.22011,0.88042 0.44021,0.77037 0.88042,1.21058 v 0 c 0.2201,0.22011 0.55026,0.22011 0.88042,0.22011 0.11005,0 0.22011,0 0.33016,0 0.55026,-0.11006 0.99047,-0.66032 1.21058,-1.10053 0.88042,-1.8709 -1.8709,-5.94285 -2.091,-6.27301 -0.22011,-1.76084 1.10052,-3.63174 1.43068,-4.07195 0.66032,0 1.21058,0 1.65079,-0.11005 v 0.22011 l -0.2201,1.21058 c -0.11005,0.2201 -0.22011,0.77036 -0.44021,0.88042 0,0 -0.66032,0.88042 -0.77037,1.87089 0,0.11006 0,0.77037 0.11005,0.99048 0.66032,0.77037 1.65079,2.091 1.65079,2.20105 v 0 c 0.33016,2.42116 0.11005,2.97143 -0.55026,4.18201 -0.11005,0.33015 -0.33016,0.66031 -0.55027,1.10052 l -0.66031,0.66032 c -0.55027,0.77037 -1.98095,0.77037 -2.091,0.77037 l -1.43069,-0.11006 c 0,0.22011 -0.11005,0.11006 -0.11005,0 z m -3.30158,-0.11005 c 0.55026,-0.33016 1.21058,-0.44021 1.76084,-0.2201 l 0.88042,0.77037 c 0,0.33015 -0.11005,0.99047 -0.88042,1.32063 v 0 c -0.55026,0.66031 -1.10053,1.10053 -1.54074,1.10053 0,0 0,0 0,0 -0.44021,0 -0.55026,-0.33016 -0.55026,-0.33016 v 0 c -0.22011,-0.11006 -0.44021,-0.33016 -0.55026,-0.55027 0,-0.44021 0,-1.54073 0.88042,-2.091 z m -1.65079,-1.76084 v 0 c 0,0 0,-0.33016 0.2201,-0.55026 0.22011,-0.22011 0.66032,-0.44022 1.21058,-0.44022 0,0 0.77037,0 0.99048,0.66032 v 0 c 0,0 0.44021,0.44021 0.44021,0.88042 -0.22011,0 -1.10053,0.11005 -1.76085,0.66032 -0.55026,0.33016 -0.88042,0.88042 -0.99047,1.21058 -0.22011,-0.77037 -0.22011,-1.54074 -0.22011,-2.091 z m 19.14917,2.42116 c 0.66031,1.10053 0.33016,3.41163 0.33016,3.41163 -0.33016,1.98095 -2.09101,2.53121 -2.75132,2.75132 -1.43069,0.33016 -2.86137,0 -3.52169,-0.88042 -0.33016,-0.44021 -0.44021,-1.10053 -0.33016,-1.76084 0,0 0,-0.11006 0.11006,-0.11006 0.2201,-0.55026 0.55026,-1.65079 2.97142,-1.76084 0.44021,0 1.21058,0.66032 1.21058,1.10053 0,0.2201 -0.22011,0.33015 -0.55026,0.33015 0,0 -0.11006,0 -0.11006,0 -0.2201,0 -0.33015,0 -0.33015,0 -0.22011,0 -0.44022,0.11006 -0.55027,0.22011 -0.11005,0.11005 0,0.22011 0,0.22011 0,0 0.22011,0.55026 1.10053,0.55026 0.11005,0 0.11005,0 0.2201,0 0,0 0.11006,0 0.11006,0 0.2201,0 0.44021,0 0.44021,0 0.88042,-0.22011 0.77037,-1.43069 0.77037,-1.54074 0,-0.88042 -0.88043,-1.32063 -0.88043,-1.32063 l -0.88042,-0.55027 -0.55026,-0.11005 -0.99047,0.11005 c -1.21058,0.22011 -1.76085,1.10053 -1.98095,1.54074 -1.32064,-1.10052 -1.54074,-1.98095 -1.54074,-1.98095 l -0.55026,-1.54073 c 0.11005,-0.22011 0.2201,-0.44022 0.44021,-0.77037 l 0.44021,0.11005 c 0,0 1.21058,0.33016 2.42116,0.33016 0.11005,0 0.33015,0 0.44021,0 0.11005,0 1.43068,-0.11006 1.43068,-0.11006 h 0.88042 c 0,0 1.32064,0.33016 1.8709,0.88043 l 0.33016,0.44021 c 0,0.2201 0,0.33016 0,0.44021 z m 1.65079,-10.12485 c -0.77037,-0.66032 -0.55026,-1.32063 -0.55026,-1.32063 l 0.2201,-2.86137 c 0,-1.43069 -0.55026,-2.53122 -0.55026,-2.53122 -0.22011,-0.66031 -1.21058,-1.10052 -1.32064,-1.21058 -0.66031,-0.11005 -1.43068,-0.11005 -1.76084,-0.11005 -0.11005,0 -0.11005,0 -0.11005,0 -1.65079,0.11005 -2.091,0.33016 -2.31111,0.44021 -0.11005,0 -0.11005,0.11005 -0.2201,0 0,0 0,-0.11005 0.11005,-0.2201 0.11005,-0.22011 0.2201,-0.66032 0.11005,-1.21058 -0.33016,-0.88042 -0.33016,-1.8709 -0.33016,-2.091 l 1.21058,-1.76085 c 1.76085,-3.08147 1.43069,-6.82327 1.43069,-6.82327 -0.44021,-6.38305 -1.65079,-9.90474 -1.65079,-9.90474 -1.76085,-5.72274 -4.51216,-10.89522 -4.51216,-10.89522 -3.52169,-5.61269 -11.00527,-6.71321 -11.11533,-6.71321 -3.63174,-0.77037 -10.01479,-0.44021 -10.12485,-0.44021 -3.30158,0.2201 -5.17247,1.10052 -5.17247,1.10052 0,0 -2.97143,1.21058 -4.18201,3.08148 0,0 -0.2201,0.44021 -0.33015,0.77037 -0.22011,0.2201 -1.21058,0.77037 -2.64127,-0.11006 -1.21058,-0.55026 -1.43068,-2.97142 -1.43068,-2.97142 0,0 -0.33016,-0.88042 -1.21058,-0.88042 -2.97143,-0.44021 -4.73227,0.66032 -4.73227,0.66032 -0.11005,0 -1.54074,1.21058 -2.091,2.42116 -0.33016,0 -1.8709,0.33015 -3.63174,2.97142 l -1.43069,1.76084 -1.98095,1.76085 v 0 c 0,0.11005 -0.77037,1.65079 -0.33015,4.62221 0.11005,0.22011 0.66031,0.66032 1.76084,1.32063 0,0 0,0 0,0 0.2201,0.33016 0.2201,3.41164 -0.33016,4.18201 0,0.11005 -0.55026,1.43068 -0.66032,1.65079 l -0.66031,1.10052 c -0.11005,0.11006 -0.44021,0.44021 -0.44021,1.54074 v 0.88042 c 0,0 -0.11006,1.32063 -0.55027,1.8709 l -1.43068,1.98095 -1.32063,1.87089 c 0,0 -0.88043,1.54074 -1.10053,1.8709 0,0.11005 -0.11005,0.11005 -0.22011,0.2201 -0.33015,0.44022 -0.88042,0.99048 -0.99047,1.76085 0,0 0,0.99047 0.66032,1.65079 0.33015,0.33016 0.88042,0.55026 1.54073,0.55026 0,0 0.11006,0 0.11006,0 h 0.66031 c 0,0 0,0 0,0 0,0.11006 0,0.33016 0,0.55027 l 0.11006,0.55026 -0.11006,1.21058 c 0,0 -0.2201,0.99047 0,1.43068 0,0 0.33016,0.33016 0.22011,0.55027 l -0.11005,0.55026 -0.11006,0.33016 c 0,0.11005 -0.2201,0.99047 0.22011,1.21058 l 0.55026,0.33016 c 0,0 0.66032,0.55026 0.33016,1.21058 l -0.55026,0.88042 c 0,0 -0.44021,0.55026 -0.55027,1.32063 0,0 -0.33016,1.65079 0.55027,3.08148 0.66031,0.99047 1.76084,1.65079 3.30158,1.87089 l 2.97142,0.33016 3.19153,0.55027 c 0,0 0.88042,0.2201 0.88042,1.43068 v 0.44021 c 0,0 0.11005,0.88042 0.44021,1.54074 l 0.66032,1.54074 0.77037,1.43068 0.77037,1.8709 c 0,0 0.66031,1.65079 0.66031,3.74179 l -0.11005,3.85185 v 0.11005 h 1.10053 0.11005 v -5.28253 c 0,0 -0.22011,-2.091 -1.10053,-3.63174 l -0.66031,-1.32063 -0.99048,-1.65079 c 0,0 -0.66031,-1.32064 -0.88042,-3.19153 v -0.99048 c 0.33016,-0.11005 2.091,-0.66031 3.74179,-1.43068 0.22011,-0.11006 2.97143,-1.8709 4.07195,-2.75132 2.20106,-1.8709 2.75132,-2.31111 2.97143,-2.53121 0,0 0,0 0,0 v 0 c 0.2201,-0.22011 1.76084,-1.54074 2.3111,-2.42116 h 0.44021 c 0,0 0,0 0,0 0.11006,0 0.22011,0 0.33016,0.11005 0.44021,0.33016 0.44021,1.54074 0.44021,1.54074 l 2.091,9.35448 -2.64126,3.9619 -2.86137,6.71321 -2.31111,8.1439 v 0.11005 h 1.54074 v 0.22011 c 0.11005,-6.60316 5.17248,-15.73754 5.17248,-15.84759 l 4.84232,-6.60316 5.39258,-5.94285 4.73227,-4.95237 c 0.11005,-0.11005 3.85184,-2.64127 4.29205,-2.97142 0.11005,-0.11006 0.22011,-0.11006 0.33016,0 0.33016,0.11005 0.44021,0.66031 0.44021,0.66031 0.44021,0.88042 0.66032,1.76085 0.66032,1.76085 0.44021,1.43068 0.33015,1.87089 0.2201,2.091 -0.11005,0.11005 -0.2201,0.11005 -0.2201,0.11005 v 0 0 c -1.65079,0.22011 -2.42116,1.43069 -2.42116,1.43069 -0.88043,1.43068 -0.66032,3.08147 -0.55027,3.63173 0,0 0,0.11006 0,0.11006 -0.11005,0 -0.2201,0 -0.2201,0 -1.98095,0 -2.53121,1.54074 -2.53121,1.54074 -1.32064,2.53121 -0.33016,5.17247 -0.33016,5.17247 0,0 0.33016,1.65079 0.2201,2.86137 0,0.22011 -0.11005,1.8709 0.66032,2.31111 0.55026,0.44021 0.99047,0.55026 1.10053,0.55026 0.11005,0.11006 0.44021,0.77037 0.99047,0.88043 0.11005,0 0.11005,0 0.11005,0 0.66032,0 1.21058,-0.44022 1.76085,-1.32064 0,0 0,-0.11005 0,-0.11005 0.11005,-0.11005 1.32063,-1.21058 1.32063,-1.21058 0,0 0.66031,-0.44021 1.65079,-0.22011 0.11005,0 1.21058,-0.11005 1.43068,-0.11005 0.99048,-0.11005 1.54074,-0.77037 1.76085,-1.21058 0.11005,0.77037 0.44021,3.08148 2.20105,3.63174 -0.11005,0.33016 -0.11005,0.77037 -0.11005,0.77037 -0.44021,1.76084 0.88042,2.75132 0.88042,2.75132 2.86137,1.76084 5.72274,0.11005 5.72274,0.11005 1.76085,-0.99047 1.8709,-3.41163 1.8709,-3.41163 0.2201,-1.8709 0,-3.08148 0,-3.08148 v 0 c -1.54074,-2.42116 0,-4.182 0,-4.182 0.55026,-0.44021 0.88042,-1.43069 1.10053,-2.86137 v 0 c 0.44021,-2.31111 -0.66032,-3.19153 -0.66032,-3.19153 z"
     id="path132"
     style="stroke-width:1.10053" /><path
     class="st1"
     d="m 135.07663,290.3592 c 0,-0.33016 0,-0.77037 0,-1.10053 0,-0.11005 0,-0.2201 0,-0.2201 0,-0.11005 0.11006,-0.22011 0.11006,-0.22011 0.11005,0 0.2201,0 0.44021,0 h 0.11005 c 0.22011,0 0.33016,0 0.55026,0 0.22011,0 0.66032,0.11006 0.77037,0.11006 0.11006,0 0.11006,0.11005 0.22011,0.11005 0.11005,0.11005 0.2201,0.11005 0.33016,0.2201 0.11005,0 0.11005,0 0.2201,0.11006 0.22011,0.11005 0.66032,0.2201 0.77037,0.33016 0.22011,0.11005 0.55026,0.66031 0.66032,0.77036 0.11005,0.11006 0.2201,0.33016 0.33016,0.44022 0.11005,0.11005 0.33015,0.2201 0.44021,0.2201 0.2201,0.11005 0.44021,0 0.44021,0 h 0.11005 l -0.11005,-0.11005 c -0.11006,-0.11005 -0.44021,-0.66032 -0.77037,-1.21058 -0.33016,-0.55027 -0.55027,-0.77037 -0.55027,-0.88042 -0.11005,-0.11006 -0.2201,-0.22011 -0.44021,-0.22011 -0.11005,0 -0.2201,-0.11005 -0.33015,-0.11005 -0.11006,0 -0.22011,-0.11005 -0.33016,-0.11005 -0.11006,0 -0.22011,-0.11006 -0.44021,-0.22011 -0.11006,-0.11005 -0.33016,-0.11005 -0.44021,-0.2201 -0.11006,0 -0.11006,-0.11006 -0.22011,-0.11006 -0.33016,-0.11005 -0.77037,-0.33016 -0.99047,-0.33016 -0.44021,0 -1.8709,0 -1.98095,0.11006 -0.11006,0.11005 -0.22011,0.2201 -0.22011,0.33016 0,0.11005 0.11005,0.2201 0.11005,0.44021 0,0.11005 0.11006,0.11005 0.11006,0.2201 0,0 0.11005,0.22011 0.11005,0.44021 0,0.22011 0,0.88042 0,1.21058 0,0.33016 -0.11005,0.44021 -0.11005,0.66032 v 0.11005 c 0,0.11005 -0.22011,0.33016 -0.33016,0.44021 -0.22011,0.22011 -0.22011,0.33016 -0.22011,0.33016 v 0 0 c 0,0 0,0 0.11006,0 0.2201,0 0.88042,-0.11005 0.99047,-0.22011 0.22011,0 0.55026,-0.88042 0.55026,-1.32063 z"
     id="path134"
     style="stroke-width:1.10053" /><path
     class="st1"
     d="m 138.81843,291.23962 c 0,0 -0.11006,-0.11005 -0.11006,-0.11005 -0.11005,-0.11005 -0.2201,-0.2201 -0.33015,-0.33016 0,0 -0.11006,-0.11005 -0.22011,-0.11005 -0.11005,0 -0.11005,-0.11005 -0.11005,-0.11005 -0.11006,0 -0.11006,-0.11006 -0.22011,-0.11006 h -0.11005 c 0,0 -0.33016,-0.2201 -0.44021,-0.2201 v 0 c -0.11005,0 -0.22011,-0.11005 -0.33016,-0.11005 0,0 0,0 -0.11005,-0.11006 0,0 -0.11006,-0.11005 -0.11006,-0.11005 -0.11005,0 -0.66031,-0.11005 -0.66031,-0.11005 0,0 0,0 0,0 -0.11005,0 -0.33016,0.2201 -0.44021,0.2201 0,0 0,0.11006 0,0.22011 0,0 0.11005,0.2201 0.11005,0.2201 0,0 0.11005,0.11006 0.22011,0.11006 0,0.11005 -0.11006,0.33016 -0.11006,0.55026 0,0.22011 0,0.44021 0,0.66032 0,0.11005 0.22011,0.44021 0.33016,0.55026 0.11005,0.11005 0.33016,0.22011 0.33016,0.22011 0,0 0,0 0,0 0,0 0.11005,0 0.11005,-0.11006 0.11005,-0.11005 0.11005,-0.2201 0.11005,-0.33015 0,-0.33016 -0.11005,-0.44022 -0.11005,-0.55027 v -0.11005 c 0,-0.11005 0.11005,-0.33016 0.22011,-0.55026 0.11005,0 0.11005,0 0.2201,0.11005 0.11006,0.11005 0.55027,0.44021 0.66032,0.55026 0,0 0.11005,0.11005 0.11005,0.11005 0.11005,0.11006 0.22011,0.11006 0.22011,0.33016 -0.11006,0.33016 -0.22011,0.44021 -0.44021,0.44021 -0.11006,0.11006 -0.44021,0.22011 -0.55027,0.22011 -0.2201,0 -0.55026,0.11005 -0.66031,0.11005 -0.11006,0 -0.44021,0 -0.44021,0 v 0 c 0,0 -0.22011,0.11005 -0.22011,0.22011 0,0.11005 0.11005,0.2201 0.11005,0.2201 h 0.55027 c 0,0 0.2201,0 0.33015,0 0,0 0.11006,0 0.22011,0 0.11005,0 0.33016,0 0.33016,0 0.11005,0 0.44021,-0.11005 0.55026,-0.2201 0.22011,-0.11006 0.88042,-0.44021 0.99048,-0.55027 0.11005,-0.11005 0.11005,-0.2201 0.2201,-0.2201 0,-0.11005 0,-0.22011 0,-0.33016 0,-0.33016 -0.11005,-0.66032 -0.2201,-0.66032 z"
     id="path136"
     style="stroke-width:1.10053" /><path
     class="st1"
     d="m 149.93375,279.79414 c 0,0 0.11005,0 0,0 0.33016,0 1.43069,0.22011 1.8709,0.44021 0.44021,0.11006 0.66031,0.22011 0.77037,0.33016 0.11005,0.11005 0.66031,0.55026 0.99047,0.88042 0.11005,0.11006 0.22011,0.22011 0.33016,0.22011 0.11005,0.11005 0.2201,0.11005 0.2201,0.33016 0,0 0,0.11005 0.22011,0.11005 0,0 0.11005,0 0.2201,0 0.22011,0 0.33016,-0.11005 0.44021,-0.22011 0.11006,-0.11005 0.11006,-0.2201 0,-0.2201 -0.11005,-0.22011 -0.11005,-0.22011 -0.11005,-0.22011 0,0 -0.11005,0 -0.2201,-0.33016 -0.22011,-0.2201 -0.44021,-0.44021 -0.66032,-0.66031 -0.11005,-0.11005 -0.2201,-0.11005 -0.2201,-0.22011 -0.44022,-0.33016 -0.66032,-0.55026 -0.88043,-0.66031 0,0 -0.11005,0 -0.11005,-0.11006 -0.33016,-0.2201 -1.32063,-0.77037 -2.53121,-0.77037 0,0 0,0 0,0 -0.33016,0 -0.99048,0.44022 -1.10053,0.55027 v 0 l 0.11005,0.44021 v 0 c 0.11006,0.11005 0.44021,0.2201 0.66032,0.11005 z"
     id="path138"
     style="stroke-width:1.10053" /><path
     class="st1"
     d="m 154.44591,283.75604 c 0.11005,0 0.11005,0 0.22011,0 0.11005,0 0.2201,-0.11005 0.2201,-0.11005 0,0 0,-0.11006 0.22011,-0.22011 0.11005,0 0.11005,-0.11005 0,-0.11005 -0.11006,-0.11005 -1.32063,-0.22011 -1.54074,-0.11005 -0.11005,0 -0.33016,0.11005 -0.55026,0.11005 -0.33016,0.11005 -0.66032,0.11005 -0.77037,0.2201 -0.11006,0 -0.22011,0.11006 -0.33016,0.11006 -0.33016,0.11005 -0.55026,0.2201 -0.55026,0.44021 0,0.11005 0,0.11005 0.11005,0.11005 0,0 0.11005,0 0.2201,0 0.22011,0 0.55027,-0.11005 0.88043,-0.22011 0.11005,0 0.2201,-0.11005 0.2201,-0.11005 0.22011,-0.11005 0.22011,-0.11005 0.44021,-0.11005 0.11005,0 0.22011,0 0.55027,-0.11005 0.33015,0.11005 0.55026,0.11005 0.66031,0.11005 z"
     id="path140"
     style="stroke-width:1.10053" /><path
     class="st1"
     d="m 151.69459,281.55499 c 0.33016,0.11005 0.99048,0.55026 1.10053,0.77036 0,0 0,0 0,0 -0.11005,0.11006 -0.33016,0.22011 -0.66032,0.33016 -0.55026,0.22011 -0.66031,0.33016 -0.77036,0.44021 v 0 0 c 0,0 0,0 0.11005,0 0,0 0,0 0,0 0.2201,0 1.32063,-0.33015 1.54074,-0.44021 0.2201,-0.11005 0.33015,-0.44021 0.44021,-0.44021 v 0 l -0.11006,-0.33016 v 0 c 0,-0.11005 -0.11005,-0.2201 -0.2201,-0.44021 -0.22011,-0.2201 -1.21058,-0.88042 -1.54074,-0.88042 0,0 -1.76084,-0.33016 -1.98095,-0.11005 -0.2201,0.11005 0,0.66031 0,0.66031 v 0 0 c 0,0 0,0 0,0 0.11005,0 0.33016,0 0.55027,0 0,0.22011 0,0.44022 0,0.55027 0,0 0,0.11005 0,0.11005 0,0.22011 0,0.33016 0.2201,0.55026 0,0 0,0.11006 0.11005,0.11006 0.11006,0.11005 0.11006,0.2201 0.33016,0.2201 0,0 0.11005,0 0.11005,0 0.22011,0 0.22011,-0.33016 0.22011,-0.55026 0,-0.11005 0,-0.22011 0,-0.33016 0,-0.2201 0.11005,-0.44021 0.22011,-0.55026 0,0.33016 0.11005,0.33016 0.33015,0.33016 z"
     id="path142"
     style="stroke-width:1.10053" /></g>
</svg>
