<?xml version="1.0" encoding="UTF-8" standalone="no"?>
<svg
   width="32"
   height="32"
   fill="currentColor"
   class="bi bi-list"
   viewBox="0 0 32 32"
   version="1.1"
   id="svg1"
   sodipodi:docname="list.svg"
   xmlns:inkscape="http://www.inkscape.org/namespaces/inkscape"
   xmlns:sodipodi="http://sodipodi.sourceforge.net/DTD/sodipodi-0.dtd"
   xmlns="http://www.w3.org/2000/svg"
   xmlns:svg="http://www.w3.org/2000/svg">
  <defs
     id="defs1" />
  <sodipodi:namedview
     id="namedview1"
     pagecolor="#ffffff"
     bordercolor="#000000"
     borderopacity="0.25"
     inkscape:showpageshadow="2"
     inkscape:pageopacity="0.0"
     inkscape:pagecheckerboard="0"
     inkscape:deskcolor="#d1d1d1">
    <inkscape:page
       x="0"
       y="0"
       width="32"
       height="32"
       id="page2"
       margin="0"
       bleed="0" />
  </sodipodi:namedview>
  <path
     fill-rule="evenodd"
     d="M 2.5,12 A 0.5,0.5 0 0 1 3,11.5 h 10 a 0.5,0.5 0 0 1 0,1 H 3 A 0.5,0.5 0 0 1 2.5,12 m 0,-4 A 0.5,0.5 0 0 1 3,7.5 h 10 a 0.5,0.5 0 0 1 0,1 H 3 A 0.5,0.5 0 0 1 2.5,8 m 0,-4 A 0.5,0.5 0 0 1 3,3.5 h 10 a 0.5,0.5 0 0 1 0,1 H 3 A 0.5,0.5 0 0 1 2.5,4"
     id="path1"
     style="fill:#ffffff" />
</svg>
